<svg width="43" height="43" viewBox="0 0 43 43" fill="none" xmlns="http://www.w3.org/2000/svg">
<circle cx="21.5" cy="21.5" r="21.5" fill="#FFBB55"/>
<path d="M13.4592 20.6434C13.0596 20.6445 12.6685 20.7588 12.3311 20.9729C11.9937 21.187 11.7238 21.4923 11.5527 21.8534C11.3816 22.2145 11.3162 22.6167 11.3641 23.0134C11.412 23.4102 11.5712 23.7852 11.8234 24.0952L17.1991 30.6804C17.3908 30.9184 17.6365 31.1072 17.9158 31.2312C18.1951 31.3552 18.4999 31.4107 18.805 31.3932C19.4575 31.3582 20.0466 31.0092 20.4222 30.4353L31.5889 12.4513C31.5907 12.4483 31.5926 12.4453 31.5946 12.4424C31.6993 12.2815 31.6654 11.9627 31.4491 11.7624C31.3897 11.7074 31.3197 11.6652 31.2433 11.6383C31.1669 11.6114 31.0859 11.6004 31.0051 11.606C30.9244 11.6116 30.8456 11.6337 30.7737 11.6708C30.7018 11.708 30.6382 11.7596 30.587 11.8222C30.583 11.8272 30.5788 11.832 30.5746 11.8368L19.3128 24.5609C19.27 24.6093 19.2179 24.6487 19.1597 24.6769C19.1015 24.705 19.0383 24.7213 18.9737 24.7248C18.9092 24.7283 18.8445 24.7189 18.7836 24.6972C18.7227 24.6755 18.6667 24.642 18.6189 24.5984L14.8813 21.1972C14.4931 20.8414 13.9858 20.6438 13.4592 20.6434Z" fill="white"/>
</svg>
