<svg width="19" height="19" viewBox="0 0 19 19" fill="none" xmlns="http://www.w3.org/2000/svg">
<path d="M3.32931 8.84255C3.02263 8.84341 2.72247 8.93108 2.46354 9.09542C2.20462 9.25975 1.99751 9.49404 1.86618 9.77117C1.73485 10.0483 1.68466 10.3569 1.72143 10.6614C1.7582 10.9659 1.88042 11.2537 2.07394 11.4916L6.19948 16.5454C6.34658 16.728 6.53513 16.8729 6.74948 16.9681C6.96383 17.0632 7.19778 17.1059 7.43191 17.0924C7.93266 17.0655 8.38476 16.7977 8.67299 16.3572L17.2428 2.5556C17.2442 2.55329 17.2457 2.55101 17.2472 2.54876C17.3276 2.4253 17.3015 2.18063 17.1355 2.02693C17.0899 1.98472 17.0362 1.95229 16.9776 1.93164C16.919 1.91099 16.8568 1.90255 16.7948 1.90685C16.7328 1.91115 16.6724 1.9281 16.6172 1.95664C16.562 1.98518 16.5132 2.02472 16.4739 2.07282C16.4708 2.0766 16.4676 2.08033 16.4644 2.08399L7.82164 11.849C7.78875 11.8862 7.74881 11.9164 7.70413 11.938C7.65946 11.9596 7.61093 11.9721 7.56138 11.9748C7.51183 11.9775 7.46225 11.9703 7.4155 11.9536C7.36875 11.937 7.32578 11.9112 7.28908 11.8778L4.42071 9.26758C4.12281 8.99449 3.73344 8.84286 3.32931 8.84255Z" fill="white"/>
</svg>
