<svg width="40" height="40" viewBox="0 0 40 40" fill="none" xmlns="http://www.w3.org/2000/svg">
<path d="M20 0C12.4184 0 6.25037 6.16807 6.25037 13.7496V13.8018C6.25037 16.5195 6.97922 19.1939 8.35811 21.5357L18.8893 39.4216C18.9926 39.5972 19.1399 39.7428 19.3166 39.8442C19.4933 39.9456 19.6933 39.9993 19.897 40H19.9011C20.1042 40 20.3037 39.9473 20.4803 39.8472C20.6569 39.747 20.8046 39.6028 20.9088 39.4286L31.5882 21.574C33.0024 19.2091 33.7494 16.5051 33.7496 13.7496C33.7496 6.16807 27.5815 0 20 0ZM19.9012 19.9134C16.6369 19.9134 13.9907 17.2672 13.9907 14.0029C13.9907 10.7385 16.6369 8.09232 19.9012 8.09232C23.1655 8.09232 25.8117 10.7385 25.8117 14.0029C25.8117 17.2671 23.1655 19.9134 19.9012 19.9134Z" fill="#FFC56D"/>
</svg>
