<svg width="44" height="47" viewBox="0 0 44 47" fill="none" xmlns="http://www.w3.org/2000/svg">
<path fill-rule="evenodd" clip-rule="evenodd" d="M24 3C35.0457 3 44 11.9543 44 23C44 34.0457 35.0457 43 24 43C12.9543 43 4 34.0457 4 23C4 11.9543 12.9543 3 24 3ZM35.7422 32.2528C36.028 31.9656 36.1884 31.5768 36.1884 31.1716C36.1884 30.7664 36.028 30.3777 35.7422 30.0905L31.8273 26.1764C31.5399 25.8905 31.151 25.73 30.7456 25.73C30.3402 25.73 29.9514 25.8905 29.664 26.1764L28.6002 27.2407C28.2469 27.597 27.788 27.8296 27.2918 27.9039C26.7957 27.9782 26.2888 27.8902 25.8466 27.6531C23.0782 26.1868 20.8139 23.9228 19.3472 21.1545C19.11 20.7122 19.022 20.2052 19.0961 19.7089C19.1703 19.2126 19.4028 18.7535 19.7589 18.4L20.8248 17.3359C21.1105 17.0486 21.271 16.6598 21.271 16.2545C21.271 15.8492 21.1105 15.4604 20.8248 15.173L16.9098 11.2594C16.6225 10.9734 16.2336 10.8129 15.8282 10.8129C15.4228 10.8129 15.0339 10.9734 14.7465 11.2594C14.5847 11.4207 14.38 11.6156 14.1611 11.8219C13.6137 12.3393 12.9307 12.9833 12.6546 13.3881C11.2005 15.5162 11.8978 18.3632 12.7355 20.3771C13.8422 23.0316 15.8817 25.924 18.4805 28.521C21.077 31.1177 23.9685 33.1575 26.6245 34.2641C28.6379 35.103 31.4838 35.7987 33.6118 34.3448C34.0164 34.0685 34.6613 33.3872 35.1777 32.8391C35.3848 32.6205 35.5799 32.4141 35.7422 32.2528Z" fill="#FFC56D"/>
</svg>
