<svg width="45" height="44" viewBox="0 0 45 44" fill="none" xmlns="http://www.w3.org/2000/svg">
<path d="M22.4402 43.6989C34.5008 43.6989 44.2725 33.9194 44.2725 21.8494C44.2725 9.77935 34.5008 -0.00012207 22.4402 -0.00012207C10.3797 -0.00012207 0.60791 9.77935 0.60791 21.8494C0.60791 33.9194 10.3797 43.6989 22.4402 43.6989ZM10.598 21.376L31.648 13.2534C32.625 12.9002 33.4783 13.4919 33.1617 14.9704L33.1635 14.9686L29.5794 31.8674C29.3138 33.0655 28.6024 33.3568 27.6072 32.7923L22.1491 28.7666L19.5165 31.3047C19.2254 31.5961 18.9798 31.8419 18.4158 31.8419L18.8033 26.283L28.919 17.1372C29.3592 16.7493 28.8207 16.5308 28.2403 16.9169L15.7395 24.7936L10.3506 23.1112C9.18073 22.7397 9.15526 21.9404 10.598 21.376Z" fill="#FFA826"/>
</svg>
