<svg width="45" height="44" viewBox="0 0 45 44" fill="none" xmlns="http://www.w3.org/2000/svg">
<path d="M22.6841 -6.10352e-05C10.6218 -6.10352e-05 0.851807 9.77759 0.851807 21.8494C0.851807 26.6563 2.38007 31.0809 4.99995 34.686L1.998 42.6065L10.6763 40.0938C14.1149 42.388 18.2631 43.6989 22.6841 43.6989C34.7465 43.6989 44.5164 33.9213 44.5164 21.8494C44.5164 9.77759 34.7465 -6.10352e-05 22.6841 -6.10352e-05ZM34.3098 30.917L31.9628 33.2112C29.5067 35.6692 23.0116 32.9927 17.2806 27.2026C11.5496 21.4671 8.98434 14.9668 11.2767 12.5634L13.6237 10.2146C14.497 9.3406 15.9707 9.3406 16.8986 10.2146L20.3371 13.6559C21.5379 14.8576 21.0467 16.9333 19.4638 17.4249C18.3722 17.8073 17.6081 19.009 17.9902 20.1015C18.5906 22.6688 21.92 25.837 24.3761 26.4378C25.4677 26.711 26.7231 26.0555 27.0506 24.963C27.5418 23.3789 29.6159 22.8873 30.8167 24.089L34.2552 27.5303C35.1285 28.4589 35.1285 29.9338 34.3098 30.917Z" fill="#FFA826"/>
</svg>
